<svg enable-background="new 0 0 52 52" viewBox="0 0 52 52" xmlns="http://www.w3.org/2000/svg" xmlns:xlink="http://www.w3.org/1999/xlink"><clipPath id="a"><path d="m239.4 1066.2h-6.8v-6.8h1.9v4.9l4.9-.1z"/></clipPath><clipPath id="b"><path d="m251.1 1024.6-3.4-3.3-3.3 3.3-1.3-1.3 4.6-4.8 4.7 4.8z"/></clipPath><clipPath id="c"><path d="m275.1 1055.6-1.2-1.3 3.2-3.2-3.2-3.3 1.2-1.3 4.7 4.6z"/></clipPath><clipPath id="d"><path d="m228.6 1488.9c-.2 0-.4-.2-.4-.5 0-.3.2-.4.4-.5.1-.1.3-.2.4-.3 1.5-1.2 2.9-2.6 4.1-4 1-1.2 2.2-2.2 3.6-2.9 1.2-.9 2.3-2 3.1-3.3.4-.9.7-1.9.9-2.9v-.2c.3-2 1.3-3.8 2.7-5.2.9-.9 1.5-1.9 1.9-3.1.7-2 1.9-3.8 3.5-5.2 1.1-1 2-2.1 2.8-3.3l.1-.1c.1-.2.2-.3.5-.3s.4.2.5.4c.1.1.1.2.2.4.4.7.9 1.3 1.4 1.9.4.4.7.8 1 1.2.5.8.9 1.7 1.2 2.6.1.2.1.4.2.6.2.7.7 1.2 1.2 1.7.9.8 1.6 1.8 1.9 3 .1.3.2.6.2.8.2.9.6 1.7 1.1 2.5.4.6.7 1.3 1.1 1.9l.5.9c1.1 1.3 2.3 2.4 3.6 3.5 1.5 1.1 2.8 2.5 3.8 4.2.3.5.7 1.1 1.2 1.9.7 1 1.5 1.9 2.3 2.8.1.1.2.3.1.5s-.2.3-.4.3c-.4 0-.9 0-1.4 0-1.5 0-2.9-.1-4.4-.4-.8-.2-1.7-.3-2.6-.3-.6 0-1.3.1-1.9.1-.6.1-1.4.1-2.3.2-.9 0-1.8-.1-2.7-.2-.7-.1-1.5-.2-2.2-.2-.2 0-.5 0-.7 0s-5 .7-5.1.7c-.5 0-1 0-1.4 0-1.1 0-2-.1-3-.2-.2 0-.4 0-.6 0s-5.1.2-5.2 0l1.4-.9h4.5c.9.1 1.9.2 2.9.2h1.1l2.8-.5s3.3-.2 3.4-.2c.8 0 1.6.1 2.4.2.8.2 1.7.2 2.5.2.9 0 1.6-.1 2.2-.2.7-.1 1.3-.1 2-.1.9 0 1.8.1 2.7.3 1.5.3 3.1.4 4.6.4-.6-.7-1.2-1.4-1.7-2.1-.5-.8-.9-1.4-1.2-1.9-.9-1.6-2.1-2.9-3.6-4-1.4-1.1-2.6-2.3-3.7-3.6 0 0 0 0-.1-.1l-.5-1c-.4-.6-.7-1.3-1.1-1.9-.5-.8-.9-1.7-1.2-2.7-.1-.2-.1-.5-.2-.8-.3-1-.8-1.9-1.6-2.6-.6-.5-1.1-1.2-1.4-2-.1-.2-.1-.4-.2-.6-.2-.8-.6-1.6-1.1-2.4-.3-.4-.6-.8-1-1.2-.6-.6-1.1-1.3-1.5-2.1-.8 1.2-1.7 2.2-2.7 3.2-1.5 1.3-2.7 3-3.3 4.9-.4 1.3-1.1 2.4-2.1 3.4-1.3 1.3-2.1 3-2.4 4.8v.2c-.2 1.1-.5 2.2-1 3.2-.9 1.4-2.1 2.6-3.5 3.6-1.3.7-2.5 1.6-3.4 2.7-1.1 1.2-2.2 2.4-3.4 3.4 1.5-.3 3-.4 4.5-.3h.5c.7 0 3.9-.1 6.1-.2h3.4c.3.6.4.9.4.9-.1-.1-5.7.1-5.9.1-1.3.1-2.5.2-4 .2h-.5c-.3 0-.5 0-.7 0-1.7 0-3.3.2-4.9.6-.4-.2-.6-.2-.7-.1z"/></clipPath><clipPath id="e"><path d="m263.6 1476.1c.7.8 1.5 1.5 2.4 2.1 1.7 1.3 3.1 2.9 4.2 4.7l.1.2c.5.9 1.1 1.7 1.7 2.5.1.2 1 1.2 1.3 1.5.3 0 .8 0 1.4-.1 1.7-.1 4.4-.2 5.1-.2h.1c.8 0 1.5.1 2.3.1.4 0 .8.1 1.2.1l-.1-.1c-1.5-1.9-3-3.7-4.8-5.4-.3-.2-.6-.3-.8-.5-.1-.1-.3-.1-.4-.2-.2-.1-.5-.3-.7-.4-1.4-.8-3.3-1.8-3.9-3l-.1-.2c-.8-1.8-2-3.3-3.4-4.6-.9-.8-1.7-1.7-2.4-2.7-.1.3-.2.7-.3 1.1-.4 1.3-.8 2.6-1.3 3.9-.4.3-.9.6-1.4.8-.1.4-.2.4-.2.4zm9.5 12c-.1 0-.1 0-.2 0-1.3-1.3-2.5-2.8-3.4-4.4l-.1-.2c-1-1.7-2.4-3.3-4-4.5-1-.8-2-1.7-2.9-2.7-.1-.1-.1-.2-.1-.4 0-.1.1-.3.2-.3s.3-.2.7-.4.9-.5 1.1-.6c.2-.5.8-2.3 1.2-3.6.3-.9.5-1.7.6-1.9 0-.2.2-.3.3-.3.2 0 .3 0 .4.2.8 1.2 1.7 2.2 2.8 3.2 1.5 1.3 2.8 2.9 3.6 4.8l.1.2c.5.9 2.4 1.9 3.6 2.6.3.2.5.3.8.4.1.1.2.1.4.2.3.2.6.3.9.5 1.8 1.7 3.5 3.6 5 5.6.3.4.6.7.8.9.1.1.1.3.1.5-.1.2-.2.3-.4.3-.8 0-1.5-.1-2.2-.1-.7-.1-1.5-.1-2.2-.1h-.1c-.7 0-3.4.1-5.1.2-1.3-.1-1.8-.1-1.9-.1z"/></clipPath><clipPath id="f"><path d="m262.3 1444.2c-.2-.1-.4-.1-.6 0-1.4 1.4-2.8.7-4.4-.1-1.7-.8-3.5-1.8-5.4.1-.1.1-.1.2-.1.4v.2 13.4h1v-7.8c1.3-1.2 2.7-.5 4.2.2.9.6 2 .9 3 1 .9 0 1.8-.4 2.4-1.1.1-.1.2-.3.1-.4 0-.2-.1-.3-.2-.4-.6-.4-1.1-.9-1.4-1.5.6-1.1 1.2-2.3 1.7-3.5-.1-.1-.2-.4-.3-.5m-2.7 4.1c-.1.2-.1.4 0 .6.4.6.8 1.2 1.3 1.7-1.2.9-2.4.2-3.8-.5-.9-.6-1.9-.9-2.9-1-.5 0-1.1.2-1.5.5v-4.6c1.3-1.2 2.6-.5 4.1.3 1.2.7 2.6 1.4 4 .8-.4.6-.7 1.4-1.2 2.2"/></clipPath><clipPath id="g"><path d="m228.1 1568.6c-.6 0-1 .5-1 1.1 0 .5.4.9 1 1h57.6c.6 0 1-.5 1-1s-.5-1-1-1z"/></clipPath><clipPath id="h"><path d="m266.7 1533.7 3-3.2v24.6c0 .5.4 1 .9 1s1-.4 1-.9v-.1-24.6l3 3.2c.3.4.9.4 1.3.1 0 0 0 0 .1-.1.4-.4.4-1 0-1.4l-4.6-4.9c-.1-.1-.2-.2-.3-.2-.2-.1-.5-.1-.7 0-.1.1-.2.1-.3.2l-4.6 4.9c-.4.4-.4 1 0 1.4.2.3.8.4 1.2 0z"/></clipPath><path d="m239.4 1066.2h-6.8v-6.8h1.9v4.9l4.9-.1z" fill="#cf131d"/><g clip-path="url(#a)"><path d="m-231.7-2057.5h2126.7v4154.8h-2126.7z" fill="#cf131d" transform="matrix(1 -.00745068 .00745068 1 -.1256 6.1967)"/><path d="m-231.7-2057.5h2126.7v4154.8h-2126.7z" fill="none" stroke="#cf131d" stroke-linejoin="round" stroke-miterlimit="4.0002" stroke-width=".75" transform="matrix(1 -.00745068 .00745068 1 -.1256 6.1967)"/></g><path d="m239.4 1066.2h-6.8v-6.8h1.9v4.9l4.9-.1z" fill="none" stroke="#cf131d" stroke-linejoin="round" stroke-width=".75"/><path d="m251.1 1024.6-3.4-3.3-3.3 3.3-1.3-1.3 4.6-4.8 4.7 4.8z" fill="#cf131d"/><g clip-path="url(#b)"><path d="m-217.3-1998.2h2092v4087.3h-2092z" fill="#cf131d"/><path d="m-217.3-1998.2h2092v4087.3h-2092z" fill="none" stroke="#cf131d" stroke-linejoin="round" stroke-width=".75"/></g><path d="m251.1 1024.6-3.4-3.3-3.3 3.3-1.3-1.3 4.6-4.8 4.7 4.8z" fill="none" stroke="#cf131d" stroke-linejoin="round" stroke-width=".75"/><path d="m275.1 1055.6-1.2-1.3 3.2-3.2-3.2-3.3 1.2-1.3 4.7 4.6z" fill="#cf131d"/><g clip-path="url(#c)"><path d="m-204.1-1903.1h2024.5v3955.4h-2024.5z" fill="#cf131d"/><path d="m-204.1-1903.1h2024.5v3955.4h-2024.5z" fill="none" stroke="#cf131d" stroke-linejoin="round" stroke-width=".75"/></g><path d="m275.1 1055.6-1.2-1.3 3.2-3.2-3.2-3.3 1.2-1.3 4.7 4.6z" fill="none" stroke="#cf131d" stroke-linejoin="round" stroke-width=".75"/><path d="m228.6 1488.9c-.2 0-.4-.2-.4-.5 0-.3.2-.4.4-.5.1-.1.3-.2.4-.3 1.5-1.2 2.9-2.6 4.1-4 1-1.2 2.2-2.2 3.6-2.9 1.2-.9 2.3-2 3.1-3.3.4-.9.7-1.9.9-2.9v-.2c.3-2 1.3-3.8 2.7-5.2.9-.9 1.5-1.9 1.9-3.1.7-2 1.9-3.8 3.5-5.2 1.1-1 2-2.1 2.8-3.3l.1-.1c.1-.2.2-.3.5-.3s.4.2.5.4c.1.1.1.2.2.4.4.7.9 1.3 1.4 1.9.4.4.7.8 1 1.2.5.8.9 1.7 1.2 2.6.1.2.1.4.2.6.2.7.7 1.2 1.2 1.7.9.8 1.6 1.8 1.9 3 .1.3.2.6.2.8.2.9.6 1.7 1.1 2.5.4.6.7 1.3 1.1 1.9l.5.9c1.1 1.3 2.3 2.4 3.6 3.5 1.5 1.1 2.8 2.5 3.8 4.2.3.5.7 1.1 1.2 1.9.7 1 1.5 1.9 2.3 2.8.1.1.2.3.1.5s-.2.3-.4.3c-.4 0-.9 0-1.4 0-1.5 0-2.9-.1-4.4-.4-.8-.2-1.7-.3-2.6-.3-.6 0-1.3.1-1.9.1-.6.1-1.4.1-2.3.2-.9 0-1.8-.1-2.7-.2-.7-.1-1.5-.2-2.2-.2-.2 0-.5 0-.7 0s-5 .7-5.1.7c-.5 0-1 0-1.4 0-1.1 0-2-.1-3-.2-.2 0-.4 0-.6 0s-5.1.2-5.2 0l1.4-.9h4.5c.9.1 1.9.2 2.9.2h1.1l2.8-.5s3.3-.2 3.4-.2c.8 0 1.6.1 2.4.2.8.2 1.7.2 2.5.2.9 0 1.6-.1 2.2-.2.7-.1 1.3-.1 2-.1.9 0 1.8.1 2.7.3 1.5.3 3.1.4 4.6.4-.6-.7-1.2-1.4-1.7-2.1-.5-.8-.9-1.4-1.2-1.9-.9-1.6-2.1-2.9-3.6-4-1.4-1.1-2.6-2.3-3.7-3.6 0 0 0 0-.1-.1l-.5-1c-.4-.6-.7-1.3-1.1-1.9-.5-.8-.9-1.7-1.2-2.7-.1-.2-.1-.5-.2-.8-.3-1-.8-1.9-1.6-2.6-.6-.5-1.1-1.2-1.4-2-.1-.2-.1-.4-.2-.6-.2-.8-.6-1.6-1.1-2.4-.3-.4-.6-.8-1-1.2-.6-.6-1.1-1.3-1.5-2.1-.8 1.2-1.7 2.2-2.7 3.2-1.5 1.3-2.7 3-3.3 4.9-.4 1.3-1.1 2.4-2.1 3.4-1.3 1.3-2.1 3-2.4 4.8v.2c-.2 1.1-.5 2.2-1 3.2-.9 1.4-2.1 2.6-3.5 3.6-1.3.7-2.5 1.6-3.4 2.7-1.1 1.2-2.2 2.4-3.4 3.4 1.5-.3 3-.4 4.5-.3h.5c.7 0 3.9-.1 6.1-.2h3.4c.3.6.4.9.4.9-.1-.1-5.7.1-5.9.1-1.3.1-2.5.2-4 .2h-.5c-.3 0-.5 0-.7 0-1.7 0-3.3.2-4.9.6-.4-.2-.6-.2-.7-.1z" fill="#cf131d"/><g clip-path="url(#d)"><path d="m-240.8-1457.1h2225v4347.1h-2225z" fill="#cf131d"/><path d="m-240.8-1457.1h2225v4347.1h-2225z" fill="none" stroke="#cf131d" stroke-linecap="round" stroke-linejoin="round" stroke-width="1.8"/></g><path d="m228.6 1488.9c-.2 0-.4-.2-.4-.5 0-.3.2-.4.4-.5.1-.1.3-.2.4-.3 1.5-1.2 2.9-2.6 4.1-4 1-1.2 2.2-2.2 3.6-2.9 1.2-.9 2.3-2 3.1-3.3.4-.9.7-1.9.9-2.9v-.2c.3-2 1.3-3.8 2.7-5.2.9-.9 1.5-1.9 1.9-3.1.7-2 1.9-3.8 3.5-5.2 1.1-1 2-2.1 2.8-3.3l.1-.1c.1-.2.2-.3.5-.3s.4.2.5.4c.1.1.1.2.2.4.4.7.9 1.3 1.4 1.9.4.4.7.8 1 1.2.5.8.9 1.7 1.2 2.6.1.2.1.4.2.6.2.7.7 1.2 1.2 1.7.9.8 1.6 1.8 1.9 3 .1.3.2.6.2.8.2.9.6 1.7 1.1 2.5.4.6.7 1.3 1.1 1.9l.5.9c1.1 1.3 2.3 2.4 3.6 3.5 1.5 1.1 2.8 2.5 3.8 4.2.3.5.7 1.1 1.2 1.9.7 1 1.5 1.9 2.3 2.8.1.1.2.3.1.5s-.2.3-.4.3c-.4 0-.9 0-1.4 0-1.5 0-2.9-.1-4.4-.4-.8-.2-1.7-.3-2.6-.3-.6 0-1.3.1-1.9.1-.6.1-1.4.1-2.3.2-.9 0-1.8-.1-2.7-.2-.7-.1-1.5-.2-2.2-.2-.2 0-.5 0-.7 0s-5 .7-5.1.7c-.5 0-1 0-1.4 0-1.1 0-2-.1-3-.2-.2 0-.4 0-.6 0s-5.1.2-5.2 0l1.4-.9h4.5c.9.1 1.9.2 2.9.2h1.1l2.8-.5s3.3-.2 3.4-.2c.8 0 1.6.1 2.4.2.8.2 1.7.2 2.5.2.9 0 1.6-.1 2.2-.2.7-.1 1.3-.1 2-.1.9 0 1.8.1 2.7.3 1.5.3 3.1.4 4.6.4-.6-.7-1.2-1.4-1.7-2.1-.5-.8-.9-1.4-1.2-1.9-.9-1.6-2.1-2.9-3.6-4-1.4-1.1-2.6-2.3-3.7-3.6 0 0 0 0-.1-.1l-.5-1c-.4-.6-.7-1.3-1.1-1.9-.5-.8-.9-1.7-1.2-2.7-.1-.2-.1-.5-.2-.8-.3-1-.8-1.9-1.6-2.6-.6-.5-1.1-1.2-1.4-2-.1-.2-.1-.4-.2-.6-.2-.8-.6-1.6-1.1-2.4-.3-.4-.6-.8-1-1.2-.6-.6-1.1-1.3-1.5-2.1-.8 1.2-1.7 2.2-2.7 3.2-1.5 1.3-2.7 3-3.3 4.9-.4 1.3-1.1 2.4-2.1 3.4-1.3 1.3-2.1 3-2.4 4.8v.2c-.2 1.1-.5 2.2-1 3.2-.9 1.4-2.1 2.6-3.5 3.6-1.3.7-2.5 1.6-3.4 2.7-1.1 1.2-2.2 2.4-3.4 3.4 1.5-.3 3-.4 4.5-.3h.5c.7 0 3.9-.1 6.1-.2h3.4c.3.6.4.9.4.9-.1-.1-5.7.1-5.9.1-1.3.1-2.5.2-4 .2h-.5c-.3 0-.5 0-.7 0-1.7 0-3.3.2-4.9.6-.4-.2-.6-.2-.7-.1z" fill="none" stroke="#cf131d" stroke-linecap="round" stroke-linejoin="round" stroke-width="1.8"/><path d="m263.6 1476.1c.7.8 1.5 1.5 2.4 2.1 1.7 1.3 3.1 2.9 4.2 4.7l.1.2c.5.9 1.1 1.7 1.7 2.5.1.2 1 1.2 1.3 1.5.3 0 .8 0 1.4-.1 1.7-.1 4.4-.2 5.1-.2h.1c.8 0 1.5.1 2.3.1.4 0 .8.1 1.2.1l-.1-.1c-1.5-1.9-3-3.7-4.8-5.4-.3-.2-.6-.3-.8-.5-.1-.1-.3-.1-.4-.2-.2-.1-.5-.3-.7-.4-1.4-.8-3.3-1.8-3.9-3l-.1-.2c-.8-1.8-2-3.3-3.4-4.6-.9-.8-1.7-1.7-2.4-2.7-.1.3-.2.7-.3 1.1-.4 1.3-.8 2.6-1.3 3.9-.4.3-.9.6-1.4.8-.1.4-.2.4-.2.4zm9.5 12c-.1 0-.1 0-.2 0-1.3-1.3-2.5-2.8-3.4-4.4l-.1-.2c-1-1.7-2.4-3.3-4-4.5-1-.8-2-1.7-2.9-2.7-.1-.1-.1-.2-.1-.4 0-.1.1-.3.2-.3s.3-.2.7-.4.9-.5 1.1-.6c.2-.5.8-2.3 1.2-3.6.3-.9.5-1.7.6-1.9 0-.2.2-.3.3-.3.2 0 .3 0 .4.2.8 1.2 1.7 2.2 2.8 3.2 1.5 1.3 2.8 2.9 3.6 4.8l.1.2c.5.9 2.4 1.9 3.6 2.6.3.2.5.3.8.4.1.1.2.1.4.2.3.2.6.3.9.5 1.8 1.7 3.5 3.6 5 5.6.3.4.6.7.8.9.1.1.1.3.1.5-.1.2-.2.3-.4.3-.8 0-1.5-.1-2.2-.1-.7-.1-1.5-.1-2.2-.1h-.1c-.7 0-3.4.1-5.1.2-1.3-.1-1.8-.1-1.9-.1z" fill="#cf131d"/><g clip-path="url(#e)"><path d="m-263.9-1445h2325.8v4328.2h-2325.8z" fill="#cf131d"/><path d="m-263.9-1445h2325.8v4328.2h-2325.8z" fill="none" stroke="#cf131d" stroke-linecap="round" stroke-linejoin="round" stroke-width="1.8"/></g><path d="m263.6 1476.1c.7.8 1.5 1.5 2.4 2.1 1.7 1.3 3.1 2.9 4.2 4.7l.1.2c.5.9 1.1 1.7 1.7 2.5.1.2 1 1.2 1.3 1.5.3 0 .8 0 1.4-.1 1.7-.1 4.4-.2 5.1-.2h.1c.8 0 1.5.1 2.3.1.4 0 .8.1 1.2.1l-.1-.1c-1.5-1.9-3-3.7-4.8-5.4-.3-.2-.6-.3-.8-.5-.1-.1-.3-.1-.4-.2-.2-.1-.5-.3-.7-.4-1.4-.8-3.3-1.8-3.9-3l-.1-.2c-.8-1.8-2-3.3-3.4-4.6-.9-.8-1.7-1.7-2.4-2.7-.1.3-.2.7-.3 1.1-.4 1.3-.8 2.6-1.3 3.9-.4.3-.9.6-1.4.8-.1.4-.2.4-.2.4zm9.5 12c-.1 0-.1 0-.2 0-1.3-1.3-2.5-2.8-3.4-4.4l-.1-.2c-1-1.7-2.4-3.3-4-4.5-1-.8-2-1.7-2.9-2.7-.1-.1-.1-.2-.1-.4 0-.1.1-.3.2-.3s.3-.2.7-.4.9-.5 1.1-.6c.2-.5.8-2.3 1.2-3.6.3-.9.5-1.7.6-1.9 0-.2.2-.3.3-.3.2 0 .3 0 .4.2.8 1.2 1.7 2.2 2.8 3.2 1.5 1.3 2.8 2.9 3.6 4.8l.1.2c.5.9 2.4 1.9 3.6 2.6.3.2.5.3.8.4.1.1.2.1.4.2.3.2.6.3.9.5 1.8 1.7 3.5 3.6 5 5.6.3.4.6.7.8.9.1.1.1.3.1.5-.1.2-.2.3-.4.3-.8 0-1.5-.1-2.2-.1-.7-.1-1.5-.1-2.2-.1h-.1c-.7 0-3.4.1-5.1.2-1.3-.1-1.8-.1-1.9-.1z" fill="none" stroke="#cf131d" stroke-linecap="round" stroke-linejoin="round" stroke-width="1.8"/><path clip-rule="evenodd" d="m262.3 1444.2c-.2-.1-.4-.1-.6 0-1.4 1.4-2.8.7-4.4-.1-1.7-.8-3.5-1.8-5.4.1-.1.1-.1.2-.1.4v.2 13.4h1v-7.8c1.3-1.2 2.7-.5 4.2.2.9.6 2 .9 3 1 .9 0 1.8-.4 2.4-1.1.1-.1.2-.3.1-.4 0-.2-.1-.3-.2-.4-.6-.4-1.1-.9-1.4-1.5.6-1.1 1.2-2.3 1.7-3.5-.1-.1-.2-.4-.3-.5m-2.7 4.1c-.1.2-.1.4 0 .6.4.6.8 1.2 1.3 1.7-1.2.9-2.4.2-3.8-.5-.9-.6-1.9-.9-2.9-1-.5 0-1.1.2-1.5.5v-4.6c1.3-1.2 2.6-.5 4.1.3 1.2.7 2.6 1.4 4 .8-.4.6-.7 1.4-1.2 2.2" fill="#cf131d" fill-rule="evenodd"/><g clip-path="url(#f)"><path d="m-240.2-1457.6h2225v4347.1h-2225z" fill="#cf131d"/><path d="m-240.2-1457.6h2225v4347.1h-2225z" fill="none" stroke="#cf131d" stroke-miterlimit="10" stroke-width="1.5"/></g><path d="m262.3 1444.2c-.2-.1-.4-.1-.6 0-1.4 1.4-2.8.7-4.4-.1-1.7-.8-3.5-1.8-5.4.1-.1.1-.1.2-.1.4v.2 13.4h1v-7.8c1.3-1.2 2.7-.5 4.2.2.9.6 2 .9 3 1 .9 0 1.8-.4 2.4-1.1.1-.1.2-.3.1-.4 0-.2-.1-.3-.2-.4-.6-.4-1.1-.9-1.4-1.5.6-1.1 1.2-2.3 1.7-3.5-.1-.1-.2-.4-.3-.5m-2.7 4.1c-.1.2-.1.4 0 .6.4.6.8 1.2 1.3 1.7-1.2.9-2.4.2-3.8-.5-.9-.6-1.9-.9-2.9-1-.5 0-1.1.2-1.5.5v-4.6c1.3-1.2 2.6-.5 4.1.3 1.2.7 2.6 1.4 4 .8-.4.6-.7 1.4-1.2 2.2" fill="none" stroke="#cf131d" stroke-miterlimit="10" stroke-width="1.5"/><path d="m228.1 1568.6c-.6 0-1 .5-1 1.1 0 .5.4.9 1 1h57.6c.6 0 1-.5 1-1s-.5-1-1-1z" fill="#cf131d"/><g clip-path="url(#g)"><path d="m-172.2-1242.8h1892.6v3879.5h-1892.6z" fill="#cf131d"/><path d="m-172.2-1242.8h1892.6v3879.5h-1892.6z" fill="none" stroke="#cf131d" stroke-miterlimit="10" stroke-width=".75"/></g><path d="m228.1 1568.6c-.6 0-1 .5-1 1.1 0 .5.4.9 1 1h57.6c.6 0 1-.5 1-1s-.5-1-1-1z" fill="none" stroke="#cf131d" stroke-miterlimit="10" stroke-width=".75"/><path d="m266.7 1533.7 3-3.2v24.6c0 .5.4 1 .9 1s1-.4 1-.9v-.1-24.6l3 3.2c.3.4.9.4 1.3.1 0 0 0 0 .1-.1.4-.4.4-1 0-1.4l-4.6-4.9c-.1-.1-.2-.2-.3-.2-.2-.1-.5-.1-.7 0-.1.1-.2.1-.3.2l-4.6 4.9c-.4.4-.4 1 0 1.4.2.3.8.4 1.2 0z" fill="#cf131d"/><g clip-path="url(#h)"><path d="m-152-1192.5h1818.4v3801.4h-1818.4z" fill="#cf131d"/><path d="m-152-1192.5h1818.4v3801.4h-1818.4z" fill="none" stroke="#cf131d" stroke-miterlimit="10" stroke-width=".5"/></g><path d="m266.7 1533.7 3-3.2v24.6c0 .5.4 1 .9 1s1-.4 1-.9v-.1-24.6l3 3.2c.3.4.9.4 1.3.1 0 0 0 0 .1-.1.4-.4.4-1 0-1.4l-4.6-4.9c-.1-.1-.2-.2-.3-.2-.2-.1-.5-.1-.7 0-.1.1-.2.1-.3.2l-4.6 4.9c-.4.4-.4 1 0 1.4.2.3.8.4 1.2 0z" fill="none" stroke="#cf131d" stroke-miterlimit="10" stroke-width=".5"/><path d="m50.3 22c2.2 2.2 2.2 5.6 0 7.9l-20.3 20.4c-2.2 2.2-5.6 2.2-7.9 0l-20.4-20.3c-2.2-2.2-2.2-5.6 0-7.9l20.3-20.4c2.2-2.2 5.6-2.2 7.9 0z" fill="#d7001e"/><path d="m36.5 39.2c-5.8-5.8-15.1-5.8-20.9 0l1.3 1.3c5-5 13.4-5 18.4 0zm-2.5 2.5c-4.5-4.5-11.6-4.5-16 0l1.3 1.3c3.7-3.7 9.8-3.7 13.5 0zm-2.5 2.5c-3-3-7.9-3-11 0l1.3 1.3c2.2-2.2 5.9-2.2 8.3 0zm-2.5 2.6c-1.6-1.6-4.3-1.6-5.9 0l1.3 1.3c.9-.9 2.4-.9 3.4 0zm-13.2-23h-.8l-1.3-4.9-1.3 4.9h-.9l-1.5-5.8h.7l1.2 4.7 1.3-4.9h.9l1.3 4.9 1.2-4.9h.7zm2.3-5.8h4v.6h-3.3v1.8h3v.6h-3v2h3.3v.7h-4zm6.3.6h-1.9v-.6h4.5v.6h-1.9v5.2h-.7zm5 0h-1.9v-.6h4.6v.6h-1.9v5.2h-.7c-.1 0-.1-5.2-.1-5.2zm3-.6h4v.6h-3.3v1.8h3v.6h-3v2h3.3v.7h-4zm7.4 2.7c.7 0 1.3-.1 1.3-1 0-.4-.3-.9-.9-1h-.1-1.9v2.1h1.6zm-2.4-2.7h2.7c1 0 1.8.6 1.8 1.5 0 .7-.3 1.3-1 1.5.7.1.7.6.9 1.2 0 .6.1 1.2.3 1.6h-.9c-.2-.3-.2-.9-.2-1.5-.1-.6-.1-1-1-1h-2v2.5h-.7zm-23.7 11.4-.6-1.9-.6 1.9zm-1.5-3.8h1.9l2.2 6.2h-2.1l-.2-.9h-1.9l-.3.9h-2zm4.5 0h1.9v4.6h2.7v1.6h-4.6zm8.6 3.8-.6-1.9-.6 1.9zm-1.5-3.8h1.9l2.2 6.2h-1.9l-.3-.9h-1.9l-.3.9h-1.9zm6.5 2.6h.9c.3 0 .9 0 .9-.6 0-.4-.1-.6-.9-.6h-.9zm-1.9-2.6h3.6c1-.1 1.9.6 1.9 1.6v.1c0 .6-.3 1.3-.9 1.5.6.3.9.9.9 1.5 0 .4 0 .9.1 1.3h-1.9c-.1-.3-.1-.6-.1-.9 0-.6-.1-1.2-.9-1.2h-1v2.2h-1.9zm6.4 0h2.7l.9 3.6.9-3.6h2.7v6.2h-1.8v-4l-1 4h-1.5l-1-4v4h-1.8v-6.2" fill="#fff"/></svg>